<svg version="1.1" id="Layer_1" xmlns="http://www.w3.org/2000/svg" xmlns:xlink="http://www.w3.org/1999/xlink" x="0px" y="0px"
	 width="100%" viewBox="0 0 1024 1024" enable-background="new 0 0 1024 1024" xml:space="preserve">
<path fill="#000000" opacity="1.000000" stroke="none"
	d="
M295.822205,665.682007
	C294.912750,667.985474 293.375977,669.663147 293.270691,672.612244
	C302.376129,666.644531 310.593597,660.277893 318.694977,653.747986
	C326.425140,647.517395 332.549164,639.912842 338.177399,631.778442
	C343.146698,624.596313 349.138733,622.389404 355.660706,624.515808
	C363.429474,627.048706 366.625793,635.053711 362.626068,642.201233
	C359.592316,647.622559 354.949066,651.824158 351.292572,656.783081
	C349.773560,658.843079 348.952759,660.690552 350.663025,663.074219
	C366.436646,685.058777 385.834564,702.897766 409.125580,715.313477
	C411.281433,715.079651 411.674255,714.094055 412.129791,713.227905
	C418.410858,701.286377 424.631958,689.312988 430.979706,677.407043
	C432.521088,674.516052 432.157410,672.783875 429.251404,670.899353
	C388.802216,644.668274 365.169159,606.933960 356.254974,560.229309
	C345.939148,506.180847 356.809540,456.521240 391.789551,413.304962
	C416.454102,382.833008 449.125641,365.021881 487.113739,356.881805
	C510.946167,351.775085 534.973206,351.283508 558.931396,356.610718
	C560.227905,356.898987 561.522522,357.222687 562.785645,357.630157
	C572.164612,360.655609 574.068787,366.804688 567.994385,374.586243
	C552.311218,394.676819 536.559998,414.714355 520.912659,434.832764
	C501.686890,459.552216 482.641205,484.412537 462.759430,508.615295
	C461.642853,509.974518 460.035522,511.156433 460.175354,513.316589
	C462.044952,515.396179 464.542664,514.685120 466.737793,514.568909
	C489.058014,513.388123 511.389832,514.275452 533.714417,514.118713
	C560.878723,513.927979 588.044861,513.961487 615.210205,513.967957
	C626.314209,513.970581 631.257446,518.632568 630.148132,529.614868
	C626.449341,566.234009 611.251526,595.918213 577.480835,613.807312
	C574.564697,615.352051 571.286438,616.207153 568.192566,617.423645
	C563.448425,619.289185 560.784729,623.458923 561.312561,628.412415
	C561.775269,632.755249 563.999084,635.433655 568.631409,635.761353
	C576.196167,636.296692 582.558105,632.793823 588.910706,629.575378
	C617.054810,615.316711 633.956421,591.661987 643.585510,562.436951
	C654.636902,528.895325 651.011169,496.421448 634.561523,465.373566
	C628.262390,453.484283 619.571289,443.337219 609.354370,434.600952
	C603.263855,429.393097 598.507324,429.436340 594.535034,434.129333
	C591.073242,438.219208 591.612305,443.622742 596.325684,448.442719
	C602.742798,455.004913 609.163513,461.555054 614.072388,469.367859
	C616.371399,473.026855 618.590637,476.773132 620.427490,480.676758
	C623.360168,486.909363 620.211548,492.451263 613.303589,493.276459
	C610.185181,493.648987 606.988159,493.374634 603.826843,493.375336
	C586.827576,493.379150 569.808289,492.878906 552.836365,493.560120
	C542.298950,493.983063 537.637329,485.931641 543.232849,476.671814
	C558.741516,451.007050 574.000244,425.190948 589.305420,399.403625
	C603.504395,375.479980 617.558899,351.470093 631.870422,327.614166
	C634.353333,323.475403 633.457397,321.535431 629.337708,319.665558
	C619.769836,315.322876 609.943665,311.678955 600.083191,308.093414
	C596.209534,306.684845 594.552917,307.287201 594.010132,311.952606
	C591.730408,331.549255 579.299438,340.643890 560.003296,337.476074
	C550.485474,335.913544 541.302917,332.606293 531.578552,332.133453
	C527.068359,331.914124 522.612061,332.070526 518.149536,332.888733
	C506.404755,335.042236 499.284821,328.693207 499.524261,316.751007
	C499.741333,305.922180 499.954193,295.073730 499.544098,284.257599
	C499.165375,274.268646 493.993469,266.850250 485.517120,261.478546
	C483.524902,263.861145 484.298248,266.281830 484.266357,268.503418
	C484.156311,276.168243 484.320007,283.837891 484.148712,291.500580
	C483.994324,298.408936 480.395660,302.239288 473.587097,303.183655
	C462.143250,304.770996 451.224304,308.253754 440.404175,312.168762
	C436.927002,313.426880 435.988922,315.055420 437.912109,318.440582
	C441.120300,324.087494 444.160675,329.836609 447.078125,335.640015
	C450.391815,342.231506 448.562103,347.391693 441.737335,351.428284
	C435.889740,354.886932 428.641113,353.477631 425.046295,347.769257
	C421.410309,341.995392 418.094879,336.010101 414.848633,330.004120
	C413.063660,326.701721 411.299957,325.954010 407.790924,328.005981
	C400.585449,332.219452 393.696747,336.860504 386.906830,341.691071
	C384.195709,343.619781 383.904175,345.372314 386.344452,347.646454
	C391.095306,352.073883 395.827332,356.521973 400.530853,360.999664
	C406.818695,366.985687 406.939514,371.003601 400.217896,376.153259
	C386.860992,386.386505 375.143402,397.981384 366.582672,412.654114
	C363.292023,418.294037 358.545258,422.796387 351.272491,422.044403
	C343.242096,421.214111 337.663513,416.046448 335.952179,408.762024
	C330.507629,385.586609 310.422028,376.849335 294.003021,364.326324
	C296.821350,373.165100 301.669586,380.894348 305.843811,388.948486
	C308.601715,394.269806 311.522095,399.506653 314.332397,404.801117
	C316.279633,408.469666 316.150146,412.038300 314.082581,415.717712
	C307.930695,426.665588 303.634155,438.365784 300.087830,450.389374
	C297.668304,458.592651 291.772614,461.598175 283.278412,458.573090
	C272.932312,454.888489 262.835419,450.510376 252.569839,446.591766
	C239.506104,441.605072 226.361984,436.829193 213.289749,431.864380
	C204.833755,428.652771 201.890610,422.535065 204.751770,414.553497
	C207.307541,407.423798 214.359573,404.064026 222.244553,407.095886
	C239.338989,413.668945 256.286133,420.616699 273.681793,426.394165
	C280.592285,428.689331 280.209167,428.537323 283.230774,421.669678
	C286.425964,414.407532 285.595947,408.261810 281.736298,401.506317
	C269.176544,379.523254 259.202576,356.159821 246.243256,334.371857
	C243.934662,330.490509 241.945404,326.384979 242.951462,321.609344
	C244.978073,311.989166 254.874985,307.816803 264.209015,313.226288
	C274.000916,318.901154 283.327332,325.373322 292.954407,331.340179
	C304.282928,338.361572 315.691071,345.255737 327.113312,352.124176
	C333.593811,356.021027 333.825928,356.112549 338.939087,350.258484
	C354.317444,332.651825 372.074860,317.937225 392.192535,306.095825
	C411.088470,294.973541 431.119080,286.398865 452.302551,280.731506
	C457.182465,279.425934 458.969299,277.370422 458.826752,272.226349
	C458.457550,258.903717 458.672333,245.564224 458.695099,232.231537
	C458.715057,220.534607 467.691345,214.682449 478.394806,219.653976
	C483.310455,221.937180 487.859802,225.009079 492.497620,227.678665
	C494.988373,225.988937 494.871948,223.412231 495.530975,221.282440
	C501.287567,202.679321 506.870758,184.022446 512.657959,165.429016
	C515.242371,157.125870 519.963562,153.522247 527.319824,153.655472
	C534.046448,153.777298 538.686157,157.491898 541.121033,165.274048
	C544.002563,174.483719 546.568848,183.791702 549.303589,193.047638
	C551.943237,201.981689 554.705688,210.880417 557.247009,219.842072
	C558.325989,223.647064 560.041870,224.610962 563.773621,222.802017
	C567.650757,220.922638 571.754883,219.409241 575.894104,218.193695
	C584.933594,215.539108 593.988281,223.149750 593.628479,231.718140
	C593.035400,245.842697 593.944214,260.025604 593.981873,274.184509
	C593.991882,277.958893 595.162415,279.858704 598.984131,280.799042
	C616.038147,284.995239 632.286865,291.371368 647.823975,299.562012
	C649.001831,300.182953 650.190796,300.819153 651.441040,301.260101
	C656.180725,302.931671 658.065247,301.561432 657.486450,296.572968
	C657.042175,292.743958 657.730591,289.213531 659.612183,285.991730
	C667.936890,271.737274 674.980225,256.820679 682.500366,242.149551
	C684.907837,237.452835 687.914124,233.316833 693.855347,232.700851
	C703.016418,231.751053 712.843994,241.948578 707.704041,251.719818
	C705.224304,256.434052 702.612732,261.080170 700.194824,265.825378
	C695.885315,274.282684 691.625671,282.766388 687.445251,291.288116
	C684.661804,296.962250 681.218872,301.888672 675.060303,304.393250
	C673.738037,304.931000 672.590698,306.060577 671.554993,307.107697
	C669.360352,309.326477 669.375610,311.316010 672.206604,313.186523
	C688.728271,324.102753 702.826965,337.764618 716.061829,352.354584
	C718.680786,355.241699 720.778198,355.543213 724.084290,353.375275
	C743.305481,340.771210 763.522888,329.728821 782.233643,316.313263
	C784.251404,314.866486 786.447083,313.589264 788.716736,312.587921
	C794.274109,310.136017 800.669800,311.255157 804.517700,315.123749
	C808.300781,318.927307 809.206970,324.647614 806.366272,330.390045
	C802.527161,338.150726 798.309387,345.723511 794.288269,353.394836
	C784.775635,371.543091 775.424622,389.778229 765.695740,407.809631
	C762.801392,413.173981 766.014771,417.124329 767.614929,421.441101
	C770.204651,428.427521 770.441589,428.498230 777.259460,425.964447
	C792.551208,420.281464 808.004028,415.010986 822.894470,408.281982
	C825.755615,406.989105 828.655640,405.610565 831.960205,405.793121
	C838.030457,406.128479 843.053406,410.201294 844.229980,415.772980
	C845.593262,422.228241 843.037048,427.948059 836.883118,430.594452
	C827.709595,434.539368 818.336975,438.019623 809.068665,441.746307
	C795.935974,447.026886 782.844482,452.410645 769.691101,457.638885
	C759.520691,461.681458 752.682190,458.829895 749.369446,448.453979
	C745.959778,437.774384 741.720276,427.500610 736.618774,417.559448
	C734.378174,413.193268 734.442017,409.134064 736.824036,404.758850
	C742.478638,394.372437 747.872864,383.843994 753.344360,373.358368
	C754.174622,371.767242 755.458801,370.339874 755.407288,368.332123
	C753.910950,367.240753 752.871216,368.425842 751.883667,369.115387
	C744.101501,374.549103 736.269348,379.918427 728.637573,385.557892
	C722.354187,390.200928 719.036865,396.962250 716.612061,404.161835
	C715.382324,407.813141 714.094727,411.414398 711.870789,414.579285
	C705.257507,423.990814 694.293640,424.015472 688.054626,414.471741
	C683.098450,406.890411 677.498352,400.027008 670.479614,394.175049
	C662.251831,387.314972 663.207397,381.314301 672.762085,376.032715
	C678.405090,372.913361 684.271790,370.157837 689.558228,366.237610
	C689.162659,365.236877 689.072021,364.508118 688.669006,364.061157
	C679.704651,354.121582 669.644836,345.438354 658.556396,337.944031
	C656.580139,336.608368 655.061890,336.597137 653.648804,338.934570
	C645.289856,352.761017 637.984497,367.204834 629.104797,380.726227
	C627.137329,383.722290 629.926697,384.905640 631.629395,386.241699
	C646.135498,397.624664 658.983582,410.614349 669.835693,425.535767
	C685.535522,447.122711 695.127747,471.491791 698.998291,497.580383
	C706.629028,549.013245 694.015747,596.040283 662.822327,637.338867
	C635.328064,673.739929 597.840393,694.174561 552.630798,700.369385
	C538.353516,702.325684 524.072449,701.951416 509.796692,700.427368
	C506.743591,700.101440 504.441223,700.453674 502.817047,703.637085
	C497.662811,713.739319 491.484344,723.247314 485.302795,732.744690
	C484.220215,734.408020 482.965820,736.029785 483.260040,738.227112
	C485.192993,752.662720 483.775635,767.175171 484.262207,781.643677
	C484.355927,784.430542 483.722198,787.288025 484.939453,790.258850
	C485.555634,790.258850 486.277435,790.467346 486.791138,790.228455
	C501.681732,783.302246 513.493225,773.466492 518.706360,757.116882
	C520.519409,751.431030 518.816711,746.284607 517.442566,740.987244
	C516.571167,737.628113 515.227844,734.375488 516.488831,730.745605
	C518.210876,725.788574 521.543274,722.970764 526.745300,722.654907
	C531.727600,722.352539 536.727112,722.214844 541.718994,722.216980
	C548.835144,722.219971 553.091309,726.755432 553.162720,734.521790
	C553.260742,745.186951 553.074463,755.854736 553.183899,766.519653
	C553.264221,774.351929 560.439514,783.678711 568.172302,786.066956
	C569.184509,781.117371 568.508057,776.153809 568.623657,771.240784
	C568.752930,765.744019 568.637207,760.241760 568.666443,754.742126
	C568.703613,747.764893 570.889648,744.349121 577.744812,742.157043
	C585.823364,739.573853 594.072876,737.526794 602.239075,735.214783
	C604.000244,734.716125 605.691284,733.945679 607.468445,733.531494
	C612.023743,732.469543 612.372559,729.859741 610.586365,726.094849
	C609.232666,723.241577 607.983948,720.305237 607.047119,717.294250
	C605.039062,710.840332 607.609070,705.371948 613.769165,702.443604
	C619.292297,699.817932 624.990784,701.198792 628.592590,706.650635
	C631.403381,710.905151 633.568176,715.586487 635.988403,720.020203
	C643.508789,718.166870 662.761414,705.629211 667.475342,699.386169
	C663.635620,695.430359 659.615784,691.502380 655.843933,687.349243
	C651.140808,682.170654 650.618103,677.981079 653.578003,672.320984
	C657.128784,665.531128 664.975342,663.419128 671.423462,667.667969
	C673.918945,669.312317 676.126160,671.387085 678.540588,673.162659
	C685.499451,678.280212 689.551880,677.833923 695.421265,671.450134
	C700.306458,666.136963 704.295349,660.218872 707.506836,653.765808
	C707.877991,653.020203 708.215332,652.256409 708.614014,651.526062
	C712.971802,643.542725 718.346619,642.135864 725.770081,647.570312
	C731.676575,651.894409 737.128479,656.833801 742.907715,661.339050
	C747.348083,664.800659 751.805481,668.280579 756.956543,671.037476
	C757.582581,669.104980 756.608643,667.841553 755.966614,666.599548
	C751.225708,657.426880 746.338684,648.329285 741.645325,639.132629
	C735.746887,627.574585 726.620544,620.933105 713.593079,619.258850
	C705.198669,618.179932 701.074890,610.907654 704.286926,603.029724
	C710.774658,587.118103 716.597229,571.070312 718.930725,553.912781
	C719.569824,549.214111 724.638000,546.155701 729.545837,546.980774
	C732.156677,547.419617 734.669373,548.418640 737.245911,549.089417
	C750.565613,552.556702 762.857544,550.366638 771.934387,539.812439
	C779.228333,531.331421 787.915222,527.902344 798.380615,528.834595
	C808.710815,529.754700 817.517822,525.676147 826.674500,522.402649
	C826.504883,521.743408 826.504578,521.234741 826.339783,521.174316
	C814.942078,516.994690 803.525757,512.555725 791.366882,511.487946
	C778.812012,510.385345 768.613586,515.389709 759.919983,524.722107
	C747.964172,537.556335 729.181885,533.432922 722.673767,517.127441
	C721.114746,513.221497 720.394958,509.143738 719.737976,505.049835
	C719.001343,500.459900 718.521606,495.829315 717.842407,491.229401
	C716.375488,481.294525 724.629272,473.992676 734.038208,477.692017
	C740.449585,480.212891 746.263794,479.767670 752.466125,477.849426
	C764.193970,474.222198 775.892273,475.104126 787.325195,479.026520
	C815.358521,488.644104 843.323792,498.460480 871.305603,508.227753
	C874.148621,509.220093 876.871094,510.520569 878.945190,512.814270
	C885.142700,519.668152 883.065308,530.163269 874.244446,533.989258
	C864.018188,538.424744 853.531372,542.276367 843.077881,546.167297
	C822.632751,553.777283 802.130493,561.233887 781.655334,568.763367
	C770.437439,572.888489 758.973389,575.520142 746.924255,574.181641
	C742.579651,573.699097 739.944031,575.056702 739.101868,579.626099
	C738.653748,582.057678 737.725647,584.440552 736.731506,586.722168
	C735.316833,589.968689 734.909729,592.994141 738.555542,594.839294
	C742.373352,596.771484 746.184937,600.683472 750.806091,597.154663
	C756.160461,593.065918 761.810608,592.591064 767.756104,594.902771
	C790.260559,603.652649 812.741943,612.464172 835.163513,621.424011
	C842.558228,624.379028 845.543335,629.721069 844.112122,636.183289
	C842.692566,642.593445 836.618408,647.629150 830.501770,647.240540
	C828.719482,647.127319 826.906982,646.567810 825.226868,645.910217
	C808.634949,639.415527 792.088501,632.804260 775.469910,626.379333
	C773.221375,625.510132 770.596313,622.861816 768.255981,625.637756
	C766.044983,628.260193 768.663208,630.704346 769.800842,632.903748
	C781.663269,655.836792 793.651001,678.704956 805.596436,701.595093
	C806.365723,703.069336 807.195496,704.529114 807.787598,706.075867
	C810.345703,712.758728 809.251770,718.229065 804.700439,721.995117
	C799.740356,726.099426 793.308350,726.687805 787.493408,723.033203
	C768.030945,710.801514 748.663574,698.418396 729.261841,686.090149
	C727.715942,685.107849 726.199524,684.078613 724.643860,683.112305
	C723.154541,682.187378 721.797180,682.347107 720.672241,683.758911
	C707.276001,700.572510 692.215271,715.791504 674.777771,730.415588
	C684.411499,732.586426 687.022522,739.861389 690.564270,746.421875
	C696.972961,758.292786 703.756348,769.964600 710.009277,781.915344
	C714.511108,790.519409 708.969971,800.360413 699.334412,801.640320
	C693.674927,802.392090 689.430298,799.838257 686.782043,795.220764
	C677.832642,779.616394 669.103577,763.884338 660.442688,748.117371
	C659.281494,746.003235 658.995239,743.408569 658.154480,740.524292
	C649.621155,744.325195 641.256165,747.933899 632.992371,751.761047
	C622.219727,756.750061 611.018982,760.523132 599.547852,763.420593
	C595.427490,764.461365 593.871338,766.219421 593.935059,770.552979
	C594.138306,784.381653 593.957092,798.216492 593.865356,812.048584
	C593.835022,816.627991 593.267822,821.066772 589.371460,824.262024
	C585.082214,827.779297 580.354614,828.549011 575.419128,826.019836
	C570.869385,823.688293 566.512390,820.980530 561.651367,818.198669
	C558.686707,823.714294 557.559204,829.435425 555.837524,834.907532
	C550.892273,850.624878 546.141113,866.403015 541.240967,882.134705
	C539.848755,886.604187 538.082458,890.931030 534.647705,894.319275
	C528.653870,900.232056 519.901672,899.272278 515.366272,892.181519
	C513.552124,889.345154 512.546204,886.160400 511.613159,882.956116
	C506.075500,863.938232 500.542358,844.919006 494.999573,825.902649
	C494.450439,824.018494 494.230652,821.955078 492.082947,820.458801
	C487.956146,822.131470 483.673218,823.881897 479.379333,825.604980
	C467.972717,830.182251 458.888977,824.111145 458.787537,811.703796
	C458.674408,797.871887 458.704315,784.038513 458.753754,770.206055
	C458.763336,767.525085 458.588928,765.306519 455.408966,764.425903
	C435.576202,758.933838 416.818939,750.758728 398.515808,741.463196
	C398.110687,741.257385 397.566132,741.326172 396.595123,741.206055
	C396.677246,749.848816 390.878571,755.811951 386.973267,762.629822
	C380.684509,773.608765 374.460968,784.649780 367.579376,795.255554
	C363.143219,802.092468 357.549835,803.281677 351.733704,800.090088
	C345.639404,796.745911 343.083282,789.759583 345.902161,782.881714
	C349.890656,773.150146 355.833282,764.413757 360.578918,755.059998
	C361.784668,752.683411 363.047760,750.334045 364.346191,748.006653
	C368.153992,741.181091 370.102142,732.832886 379.938080,730.433716
	C376.568542,727.564636 374.008392,725.242920 371.302887,723.105164
	C357.652100,712.318481 345.527618,699.941956 334.021118,686.966614
	C330.983032,683.540649 328.826996,683.322693 324.894257,685.746643
	C308.021545,696.146179 290.871918,706.095581 273.873322,716.292419
	C270.455200,718.342834 267.383270,720.980957 263.927643,722.956055
	C257.230377,726.783875 250.906921,726.241455 246.392624,721.805481
	C242.024857,717.513489 241.241516,710.804260 244.692932,704.235535
	C256.933136,680.939819 269.272369,657.696167 281.571716,634.431519
	C282.194672,633.253235 282.731201,632.024414 283.420288,630.887085
	C284.726379,628.731445 284.283051,626.878418 282.866302,624.921997
	C281.234741,622.668945 279.380341,623.575928 277.512756,624.245483
	C262.303864,629.697632 247.208618,635.440186 232.399200,641.914551
	C229.195679,643.315002 225.985626,644.715454 222.711990,645.937561
	C215.073502,648.789124 208.288452,646.070618 205.291748,639.071411
	C202.438110,632.406372 205.549957,624.223633 212.701920,621.223755
	C224.828812,616.137085 237.123566,611.447876 249.376923,606.666321
	C259.920654,602.551880 270.519165,598.578003 281.067780,594.475830
	C293.427887,589.669373 299.582855,592.287903 304.739410,604.394714
	C306.956635,609.600281 309.301178,614.780518 312.016388,619.737549
	C315.171051,625.497009 314.486267,630.678284 311.388824,636.230469
	C306.039246,645.819702 301.101105,655.638489 295.822205,665.682007
M485.336243,688.884216
	C520.702087,638.987244 556.961792,589.729248 592.907227,540.294800
	C589.913452,537.731934 587.303528,538.400818 584.884460,538.399353
	C536.398132,538.370422 487.911774,538.405151 439.425446,538.386292
	C429.684174,538.382507 424.631653,533.286133 424.761627,523.537476
	C424.948395,509.531006 427.928101,496.097290 434.118317,483.527893
	C441.013245,469.527710 449.394867,456.627350 462.167908,447.038574
	C467.115265,443.324615 467.913849,438.510101 465.122375,434.396362
	C461.697479,429.349030 456.708740,428.141815 451.186462,431.161072
	C449.592438,432.032654 448.079834,433.128357 446.714325,434.330719
	C435.338257,444.347382 426.169006,456.165924 419.001251,469.461151
	C403.763763,497.724670 400.624603,527.488098 408.625214,558.492554
	C414.924927,582.905762 426.894135,603.763428 447.024200,619.487427
	C449.950775,621.773438 453.012604,623.744202 456.738007,624.349792
	C460.638519,624.983826 463.583862,623.209961 465.686340,620.144592
	C467.771606,617.104309 467.882446,613.821838 465.412201,610.905884
	C463.483673,608.629395 461.386963,606.458923 459.147217,604.488831
	C449.401855,595.917114 441.254669,586.080444 435.642456,574.344971
	C431.510864,565.705750 435.775970,558.843506 445.369171,558.772705
	C466.195374,558.619080 487.024292,558.634277 507.850586,558.789185
	C516.357605,558.852417 520.767517,566.518127 517.063110,574.280212
	C516.130981,576.233276 515.125610,578.155151 514.074036,580.046997
	C499.024353,607.123840 483.906616,634.163147 468.918640,661.274109
	C457.557495,681.824707 446.432831,702.506287 435.017639,723.026550
	C432.924316,726.789612 433.557526,728.687195 437.477203,730.127197
	C441.847565,731.732788 446.160919,733.524963 450.391571,735.469727
	C453.998016,737.127625 456.141388,736.191467 457.969818,732.692261
	C465.852173,717.607178 475.263794,703.458252 485.336243,688.884216
M520.548645,235.933960
	C520.295471,237.238510 520.098267,238.556915 519.779907,239.845352
	C517.709351,248.223663 517.089355,256.178864 522.029968,264.212250
	C525.642517,270.086151 526.051208,277.074524 524.645874,284.070160
	C522.614868,294.180634 525.522705,302.585052 534.376770,308.332306
	C542.090332,313.339203 550.603394,315.937103 559.877258,315.660156
	C566.409729,315.465057 568.622131,313.288025 568.633972,306.889069
	C568.663269,291.070282 568.638733,275.251251 568.591248,259.432495
	C568.585510,257.501587 568.910583,255.398270 567.007812,253.862442
	C564.284973,254.138046 562.069763,255.632996 559.762939,256.919739
	C557.439270,258.215820 555.168945,259.647400 552.738159,260.704254
	C545.339905,263.920837 538.262207,260.632935 535.712524,252.935211
	C534.809387,250.208542 534.889832,247.369812 534.640930,244.552521
	C533.721924,234.151489 529.793274,224.510345 527.244995,213.483353
	C523.875122,221.194061 522.528503,228.219330 520.548645,235.933960
M519.834473,808.832642
	C521.799500,817.353821 523.764526,825.875000 525.729614,834.396179
	C530.098938,823.763000 533.617126,813.230774 535.553345,802.292664
	C536.467957,797.126038 533.903809,792.767517 530.676880,788.197083
	C527.708008,791.761475 525.281738,795.134521 522.379395,798.030273
	C519.443115,800.960022 518.727783,804.189270 519.834473,808.832642
z"/>
<path fill="#000000" opacity="1.000000" stroke="none"
	d="
M280.993561,570.218628
	C267.903320,569.484436 256.036682,565.447937 244.317245,561.230896
	C221.140121,552.890991 198.131409,544.081543 175.085068,535.381531
	C172.618073,534.450195 170.167618,533.225159 168.045731,531.675842
	C161.466583,526.871887 161.247177,518.661743 167.343536,513.207031
	C170.274231,510.584747 173.884933,509.172943 177.462204,507.903900
	C205.069107,498.109924 232.727127,488.460266 260.357269,478.731567
	C272.644348,474.405212 285.091156,474.090912 297.718628,476.942657
	C299.818298,477.416840 301.986816,477.588806 304.125153,477.888763
	C308.092651,478.445343 310.340759,476.598511 311.596771,472.905792
	C314.114990,465.502045 316.736206,458.130920 319.468689,450.803650
	C320.568481,447.854431 321.795105,444.883545 323.448273,442.223480
	C327.315186,436.001190 333.001038,434.577698 339.344452,437.898895
	C345.140381,440.933472 347.851532,447.521790 345.378967,453.564789
	C341.151550,463.896820 336.894867,474.200562 334.870331,485.252930
	C334.570953,486.887268 334.425262,488.549194 334.160797,490.190643
	C333.050964,497.079071 327.781860,500.930267 320.858490,499.715698
	C315.423065,498.762085 310.086609,498.030548 304.538330,499.301331
	C297.622253,500.885376 291.650299,503.926208 287.257904,509.503540
	C279.231842,519.694824 269.420715,522.311829 257.086426,518.201233
	C246.304367,514.607971 233.279388,516.527893 222.292297,522.151062
	C223.159042,524.095276 225.137161,524.263062 226.750824,524.818848
	C237.608841,528.558411 248.392899,532.564209 259.400909,535.804260
	C274.609528,540.280640 288.281860,538.493713 298.941376,525.042603
	C304.444672,518.097961 312.798523,516.063538 320.528961,518.861816
	C328.699005,521.819214 332.922455,528.223999 333.090363,536.433167
	C333.474243,555.196350 338.159607,572.913696 344.517914,590.345154
	C347.708496,599.092224 345.734375,604.805298 338.617340,607.728271
	C331.635986,610.595520 325.130493,607.406433 321.548492,599.214478
	C317.128448,589.105896 314.468445,578.436523 311.741455,567.792786
	C311.254608,565.892517 311.050171,563.869324 309.330688,562.002808
	C300.369659,565.636963 291.483978,569.980713 280.993561,570.218628
z"/>
<path fill="#000000" opacity="1.000000" stroke="none"
	d="
M347.007965,303.749451
	C346.314423,306.929169 345.329163,309.558746 343.569519,311.845947
	C338.418701,318.541107 329.811340,319.462463 324.060150,313.358215
	C312.894531,301.507233 301.911224,289.474792 291.158630,277.248230
	C285.489075,270.801453 285.875580,263.998444 291.367126,258.637909
	C296.774658,253.359360 303.905212,253.086960 310.143250,258.845428
	C321.625122,269.444641 332.298889,280.876801 342.847260,292.402985
	C345.584869,295.394409 347.009705,299.178223 347.007965,303.749451
z"/>
<path fill="#000000" opacity="1.000000" stroke="none"
	d="
M380.804413,301.777588
	C375.667236,300.269104 372.871002,296.663605 371.138489,292.477142
	C365.457703,278.750031 357.646820,266.174469 350.480469,253.246841
	C348.520233,249.710693 346.912079,246.079666 348.218628,241.865799
	C349.831970,236.662430 353.192932,233.114990 358.551880,232.142639
	C364.330170,231.094193 369.188416,233.285980 372.244080,238.269455
	C378.583893,248.609100 384.748718,259.062012 390.203827,269.909454
	C392.070465,273.621277 393.769135,277.422638 395.757751,281.066772
	C398.373413,285.859924 399.791473,290.564606 396.174988,295.507629
	C392.436615,300.617157 387.763611,303.464294 380.804413,301.777588
z"/>
<path fill="#000000" opacity="1.000000" stroke="none"
	d="
M764.398804,261.793884
	C767.940063,267.210724 767.556335,272.308167 763.913940,276.922729
	C753.713501,289.845520 743.087830,302.425812 731.591309,314.217712
	C727.295837,318.623566 721.279358,318.884735 716.516907,315.683533
	C711.367493,312.222168 708.607849,305.312531 710.271606,300.066132
	C711.037903,297.649658 712.273071,295.484955 713.954895,293.612793
	C723.622559,282.851044 733.175598,271.981049 743.055786,261.417419
	C749.849609,254.153625 757.312073,254.389801 764.398804,261.793884
z"/>
<path fill="#000000" opacity="1.000000" stroke="none"
	d="
M758.916931,774.254395
	C751.935852,777.424622 748.172546,777.095581 743.274597,771.865173
	C733.369995,761.287964 723.631165,750.545471 714.125061,739.609314
	C709.218628,733.964722 709.432190,727.572998 713.842651,722.331360
	C718.295959,717.038757 724.980164,715.977722 731.423706,719.733032
	C733.267517,720.807556 735.029846,722.184021 736.478699,723.747253
	C744.858582,732.788452 753.237488,741.834717 761.413391,751.059509
	C768.966064,759.581055 768.152039,767.059326 758.916931,774.254395
z"/>
<path fill="#000000" opacity="1.000000" stroke="none"
	d="
M338.974854,739.842224
	C329.485504,750.392151 320.461151,760.884766 310.891144,770.853577
	C304.240204,777.781616 297.065887,777.610474 291.257660,771.364441
	C286.704712,766.468140 286.027130,759.944885 290.041748,754.409729
	C299.076843,741.952698 310.306519,731.434753 320.990356,720.471741
	C325.924133,715.408997 332.990753,715.874756 338.203461,720.428955
	C343.881836,725.389954 344.229980,732.027649 338.974854,739.842224
z"/>
<path fill="#000000" opacity="1.000000" stroke="none"
	d="
M436.515106,785.146240
	C431.029266,798.950928 426.406311,812.670654 419.957367,825.625061
	C417.327545,830.907776 411.782715,833.873291 407.022522,833.113525
	C401.685425,832.261719 397.348053,827.876404 396.003693,822.193237
	C395.390289,819.600098 395.995483,817.170227 396.880341,814.879944
	C401.848022,802.022339 406.748596,789.132019 412.086243,776.426819
	C415.034912,769.408020 421.986786,766.828857 429.080780,769.310303
	C435.106689,771.418152 437.975006,777.277893 436.515106,785.146240
z"/>
<path fill="#000000" opacity="1.000000" stroke="none"
	d="
M649.932922,794.150391
	C652.354858,801.281738 654.813171,807.991272 656.854492,814.825317
	C659.215271,822.729004 655.278076,830.051270 647.639832,832.647705
	C641.429932,834.758667 635.310059,831.735718 632.414978,824.096191
	C627.652039,811.527893 623.267883,798.804565 619.135193,786.013733
	C616.954773,779.265015 621.181519,771.700439 627.598267,769.460876
	C634.479980,767.059021 641.286377,770.148621 644.113220,777.321167
	C646.239441,782.715759 647.911011,788.289551 649.932922,794.150391
z"/>
<path fill="#000000" opacity="1.000000" stroke="none"
	d="
M412.037231,261.831726
	C407.078308,249.814911 402.038727,238.217682 397.653992,226.377960
	C395.082520,219.434555 398.334625,212.754807 404.471741,210.234207
	C411.057617,207.529282 418.083649,209.839417 421.279297,216.672455
	C426.702515,228.268585 431.692017,240.075562 436.569641,251.915115
	C438.704620,257.097382 435.284058,264.592651 430.007843,267.152771
	C423.168976,270.471069 415.395966,268.466766 412.037231,261.831726
z"/>
<path fill="#000000" opacity="1.000000" stroke="none"
	d="
M652.699585,238.618301
	C650.337463,245.415863 648.238892,251.895081 645.916077,258.292908
	C642.450012,267.839722 633.984863,271.990204 626.436279,267.997253
	C620.557861,264.887817 617.642212,257.977783 619.872986,251.383408
	C623.490845,240.688721 627.246643,230.034973 631.225830,219.470016
	C634.392822,211.061523 641.360779,207.826080 649.075500,210.727783
	C656.178711,213.399475 659.170532,220.834900 656.342224,228.925125
	C655.246216,232.060211 654.026306,235.152008 652.699585,238.618301
z"/>
<path fill="#000000" opacity="1.000000" stroke="none"
	d="
M712.846924,460.791656
	C705.032715,456.459534 702.579407,449.323090 706.119385,442.176331
	C709.380798,435.592224 716.429504,432.893097 722.861206,435.765533
	C728.430054,438.252686 731.897583,444.733917 730.718994,450.452637
	C729.398926,456.857605 724.193726,461.237244 717.676941,461.327332
	C716.196350,461.347839 714.711792,461.082550 712.846924,460.791656
z"/>
</svg>
